<?xml version="1.0" encoding="UTF-8"?>
<!-- Generator: Adobe Illustrator 22.1.0, SVG Export Plug-In . SVG Version: 6.00 Build 0)  -->
<svg version="1.1" id="Layer_1" xmlns="http://www.w3.org/2000/svg" xmlns:xlink="http://www.w3.org/1999/xlink" x="0px" y="0px" viewBox="0 0 841.9 168.8" style="enable-background:new 0 0 841.9 168.8;" xml:space="preserve">
<style type="text/css">
	.st0{fill:#A39161;}
	.st1{fill:#005581;}
</style>
<g>
	<path class="st0" d="M776.2,144.5c6.9-2.8,24.9-13.1,32.8-15.4c-7.9,0-4,0.1-11.9,0.1c-254.8,1.4-509.5,3.6-764.2,7.7   C280.7,141,528.4,143.1,776.2,144.5"/>
	<g>
		<path class="st1" d="M33,26.6H80c18.2,0,37,6.3,37,22.7c0,10.2-8.5,17-21,19.8v0.3c15.2,1.3,26.1,10.2,26.1,21.8    c0,19.7-22.9,25.8-45.7,25.8H33V26.6z M54.5,63.3h19.6c14.3,0,21.5-4.6,21.5-11.4c0-7.8-7.2-11.6-23.4-11.6H54.5V63.3z     M54.5,103.2h19.8c11.1,0,26.4-1.4,26.4-13.3c0-9.5-8.2-12.8-25.6-12.8H54.5V103.2z"/>
		<path class="st1" d="M192.1,26.6h18.6l52,90.4h-24.6l-11.3-20.7h-52.4L163.6,117h-24L192.1,26.6z M219.4,82.5l-18.6-36.8    l-18.9,36.8H219.4z"/>
		<path class="st1" d="M285.9,26.6h42c23.2,0,45,5.6,45,25.9c0,13-10.1,22.6-28,24.5l32.1,40h-25.9l-28-38.3h-15.7V117h-21.5V26.6z     M324.1,64.9c12.1,0,26.3-0.8,26.3-12.5c0-10.7-13.3-12-24.4-12h-18.6v24.5H324.1z"/>
		<path class="st1" d="M403.1,26.6h42c23.2,0,45,5.6,45,25.9c0,13-10.1,22.6-28,24.5l32.1,40h-25.9l-28-38.3h-15.7V117h-21.5V26.6z     M441.3,64.9c12.1,0,26.3-0.8,26.3-12.5c0-10.7-13.3-12-24.4-12h-18.6v24.5H441.3z"/>
		<path class="st1" d="M519.7,26.6h21.5V117h-21.5V26.6z"/>
		<path class="st1" d="M660.3,47.8c-8.9-7-17.1-8.9-25.4-8.9c-24.9,0-41.4,14.3-41.4,32.3c0,19.3,16.5,33.6,41.4,33.6    c9.7,0,19.1-3.3,27.1-11l17.7,9.5c-10.9,11.2-27.3,16.1-45,16.1c-37.2,0-63.8-18.9-63.8-47.1c0-29,26.6-47.9,63.8-47.9    c16.4,0,30.4,4,42.3,14.3L660.3,47.8z"/>
		<path class="st1" d="M703.7,26.6h21.5v38.3h1l50-38.3h29l-56.5,41.8L809,117h-30.2l-52.4-44.4h-1.2V117h-21.5V26.6z"/>
	</g>
</g>
</svg>